<?xml version="1.0" encoding="UTF-8" standalone="no"?>

<svg width="7692" height="6548" viewBox="0 0 7692 6548" xmlns="http://www.w3.org/2000/svg"
   xmlns:svg="http://www.w3.org/2000/svg">
    <path style="fill:none;stroke:#00ffff;stroke-linecap:round;stroke-linejoin:round;" d="m 775,710 v 3301 c 0,2 0.5469,4.6869 1,7 0.2642,1.3487 0.57715,2.6923 1,4 0.55228,1.708 1.26464,3.3625 2,5 0.61068,1.3599 1.28266,2.6932 2,4 0.9353,1.7038 1.91546,3.3871 3,5 0.92998,1.3831 1.908,2.7409 3,4 1.23546,1.4245 2.5755,2.7645 4,4 1.25909,1.092 2.61692,2.07 4,3 1.61294,1.0845 3.29618,2.0647 5,3 1.30677,0.7173 2.64011,1.3893 4,2 1.63752,0.7354 3.29202,1.4477 5,2 1.3077,0.4229 2.65443,0.7201 4,1 1.98511,0.4129 4,1 6,1 h 3019 c 2,0 4.6869,-0.5469 7,-1 1.3487,-0.2642 2.6923,-0.5771 4,-1 1.708,-0.5523 3.3625,-1.2646 5,-2 1.3599,-0.6107 2.6932,-1.2827 4,-2 1.7038,-0.9353 3.3871,-1.9155 5,-3 1.3831,-0.93 2.7409,-1.908 4,-3 1.4245,-1.2355 2.7645,-2.5755 4,-4 1.092,-1.2591 2.07,-2.6169 3,-4 1.0845,-1.6129 2.0647,-3.2962 3,-5 0.7173,-1.3068 1.3893,-2.6401 2,-4 0.7354,-1.6375 1.4477,-3.292 2,-5 0.4229,-1.3077 0.7358,-2.6513 1,-4 0.4531,-2.3131 1,-5 1,-7 v -480 -4 c 0,-1 0.6667,-2.6667 1,-4 0.3333,-1.3333 0.5771,-2.6923 1,-4 0.5523,-1.708 1.2646,-3.3625 2,-5 0.6107,-1.3599 1.2827,-2.6932 2,-4 0.9353,-1.7038 1.9155,-3.3871 3,-5 0.93,-1.3831 1.908,-2.7409 3,-4 1.2355,-1.4245 2.5755,-2.7645 4,-4 1.2591,-1.092 2.6169,-2.07 4,-3 1.6129,-1.0845 3.2962,-2.0647 5,-3 1.3068,-0.7173 2.6401,-1.3893 4,-2 1.6375,-0.7354 3.292,-1.4477 5,-2 1.3077,-0.4229 2.6667,-0.6667 4,-1 1.3333,-0.3333 3,-1 4,-1 h 4 956 c 2,0 4.6869,-0.5469 7,-1 1.3487,-0.2642 2.6923,-0.5771 4,-1 1.708,-0.5523 3.3625,-1.2646 5,-2 1.3599,-0.6107 2.6932,-1.2827 4,-2 1.7038,-0.9353 3.3871,-1.9155 5,-3 1.3831,-0.93 2.7409,-1.908 4,-3 1.4245,-1.2355 2.7645,-2.5755 4,-4 1.092,-1.2591 2.07,-2.6169 3,-4 1.0845,-1.6129 2.0647,-3.2962 3,-5 0.7173,-1.3068 1.3893,-2.6401 2,-4 0.7354,-1.6375 1.4477,-3.292 2,-5 0.4229,-1.3077 0.7358,-2.6513 1,-4 0.4531,-2.3131 1,-5 1,-7 V 710 c 0,-2 -0.5871,-4.01489 -1,-6 -0.2799,-1.34557 -0.5771,-2.6923 -1,-4 -0.5523,-1.70798 -1.2646,-3.36248 -2,-5 -0.6107,-1.35989 -1.2827,-2.69323 -2,-4 -0.9353,-1.70382 -1.9155,-3.38706 -3,-5 -0.93,-1.38308 -1.908,-2.74091 -3,-4 -1.2355,-1.4245 -2.5755,-2.76454 -4,-4 -1.2591,-1.092 -2.6169,-2.07002 -4,-3 -1.6129,-1.08454 -3.2962,-2.0647 -5,-3 -1.3068,-0.71734 -2.6401,-1.38932 -4,-2 -1.6375,-0.73536 -3.292,-1.44772 -5,-2 -1.3077,-0.42285 -2.6513,-0.7358 -4,-1 -2.3131,-0.4531 -5,-1 -7,-1 H 819 c -2,0 -4.01489,0.58712 -6,1 -1.34557,0.27986 -2.6923,0.57715 -4,1 -1.70798,0.55228 -3.36248,1.26464 -5,2 -1.35989,0.61068 -2.69323,1.28266 -4,2 -1.70382,0.9353 -3.38706,1.91546 -5,3 -1.38308,0.92998 -2.74091,1.908 -4,3 -1.4245,1.23546 -2.76454,2.5755 -4,4 -1.092,1.25909 -2.07002,2.61692 -3,4 -1.08454,1.61294 -2.0647,3.29618 -3,5 -0.71734,1.30677 -1.38932,2.64011 -2,4 -0.73536,1.63752 -1.44772,3.29202 -2,5 -0.42285,1.3077 -0.72014,2.65443 -1,4 -0.41288,1.98511 -1,4 -1,6 z"></path>
</svg>